<?xml version="1.0" encoding="UTF-8"?>
<svg id="Layer_1" data-name="Layer 1" xmlns="http://www.w3.org/2000/svg" xmlns:xlink="http://www.w3.org/1999/xlink" viewBox="0 0 216 144">
  <defs>
    <style>
      .cls-1, .cls-2 {
        fill: #fff;
      }

      .cls-3 {
        clip-path: url(#clippath-2);
      }

      .cls-4, .cls-5, .cls-6, .cls-2, .cls-7, .cls-8, .cls-9 {
        isolation: isolate;
      }

      .cls-5 {
        font-size: 12.92px;
      }

      .cls-5, .cls-6, .cls-7, .cls-8 {
        font-family: Stencil, Stencil;
      }

      .cls-5, .cls-10 {
        fill: #f68620;
      }

      .cls-6 {
        fill: #066061;
        font-size: 11.86px;
      }

      .cls-2, .cls-9 {
        opacity: .5;
      }

      .cls-7 {
        font-size: 88.75px;
      }

      .cls-7, .cls-11 {
        fill: #025f5f;
      }

      .cls-12 {
        clip-path: url(#clippath-1);
      }

      .cls-8 {
        fill: #005e5f;
        font-size: 61.35px;
      }

      .cls-13 {
        clip-path: url(#clippath);
      }

      .cls-14, .cls-9 {
        fill: #026060;
      }

      .cls-15 {
        fill: none;
      }

      .cls-16 {
        fill: #231f20;
      }
    </style>
    <clipPath id="clippath">
      <polygon class="cls-15" points="8.89 107.63 6.68 104.34 37.12 104.34 39.33 107.63 8.89 107.63"/>
    </clipPath>
    <clipPath id="clippath-1">
      <polygon class="cls-15" points="10.07 66.04 7.87 62.77 32.17 62.77 34.36 66.04 10.07 66.04"/>
    </clipPath>
    <clipPath id="clippath-2">
      <polygon class="cls-15" points="8.82 87.1 6.71 83.96 29.85 83.96 31.95 87.1 8.82 87.1"/>
    </clipPath>
  </defs>
  <text class="cls-8" transform="translate(42.17 106.62) scale(.73 1)"><tspan x="0" y="0">VERES</tspan></text>
  <polygon class="cls-16" points="5.69 68.65 40.48 68.65 34.85 77.58 .07 77.58 5.69 68.65"/>
  <g>
    <polygon class="cls-14" points="6.71 68.65 2.13 60 35.76 60.24 41.35 68.65 6.71 68.65"/>
    <polygon class="cls-14" points=".07 68.65 .07 64.12 .04 57.81 5.63 68.65 .05 77.58 .07 73.11 .07 68.65"/>
    <polygon class="cls-14" points="6.71 68.65 41.35 68.65 35.76 77.58 1.12 77.58 6.71 68.65"/>
  </g>
  <polygon class="cls-16" points="5.63 109.73 28.7 109.73 24.81 118.67 .11 118.67 5.63 109.73"/>
  <g>
    <polygon class="cls-14" points=".07 109.73 .07 105.24 .06 96.91 5.63 109.73 .11 118.67 .07 114.19 .07 109.73"/>
    <polygon class="cls-14" points="45.88 109.73 6.54 109.73 3.22 102.42 39.64 102.02 45.88 109.73"/>
    <polygon class="cls-14" points="6.54 109.73 45.88 109.73 39.64 118.67 1.18 118.67 6.54 109.73"/>
  </g>
  <polygon class="cls-9" points="41.35 68.65 29.48 71.29 1.3 77.58 6.88 68.65 41.35 68.65"/>
  <polygon class="cls-2" points="45.88 109.73 32.7 112.55 1.18 118.67 6.54 109.73 45.88 109.73"/>
  <g class="cls-4">
    <g class="cls-13">
      <g>
        <path class="cls-1" d="m8.63,105.06l.47,1.88c.03.11.03.19,0,.25l-.07.09s-.08.05-.16.08c-.09.03-.12.06-.09.11l.14.1c.06.03.14.04.23.04h.91c.18,0,.24-.04.19-.13-.04-.05-.11-.1-.2-.12l-.15-.04c-.17-.04-.29-.11-.35-.21l-.05-.12-.37-1.48-.51-.46m1.31-.59h-1.46s.06.23.06.23l1.93,1.85h-.8s.09.29.09.29h1.01s.34.32.34.32l.06.07.02.07-.07.05-.09.06.02.07.13.09c.05.02.13.04.2.04h1.8c.19,0,.25-.05.2-.13l-.08-.07-.16-.05c-.09-.02-.15-.04-.19-.07-.05-.04-.11-.08-.16-.13l-2.83-2.69"/>
        <path class="cls-1" d="m16.71,106.65l-.11.04s-.02.05-.02.11c.02.09,0,.17-.03.24s-.09.13-.17.18c-.15.08-.31.13-.5.13l.2.28c.21,0,.38-.04.51-.09s.24-.13.34-.22c.07-.09.12-.18.13-.27.02-.1,0-.18-.04-.25l-.13-.11-.19-.04m-3.15-2.27h-.09c-.24,0-.47.04-.68.13-.21.1-.36.22-.45.36-.09.15-.13.32-.08.52.04.2.13.41.29.65.21.31.47.58.78.82.31.22.67.4,1.05.54.44.15.88.22,1.34.22h.04l-.19-.28c-.08,0-.14-.02-.2-.03l-.17-.07-.16-.1-.11-.11-.06-.1-1.29-1.88c-.08-.13-.12-.22-.09-.28.03-.07.11-.11.23-.13l-.17-.27m1.59,0c-.08,0-.13.02-.13.05v.05s-.13.06-.13.06c-.04,0-.13,0-.28-.04-.22-.04-.38-.07-.46-.09s-.18-.03-.31-.04l.19.28c.12,0,.22.03.34.06s.23.08.37.14c.19.09.39.21.6.35.1.07.21.16.34.28.05.05.11.09.16.12l.17.04.12-.04s.02-.07-.03-.13l-.64-.95s-.08-.08-.13-.11l-.18-.03"/>
        <path class="cls-1" d="m18.09,104.43h-1.71s-.09,0-.09,0c-.09,0-.15,0-.18.04v.09c.03.06.11.1.22.13.09.02.14.03.16.04l.06.03s.09.06.13.12l1.56,2.28c.04.05.05.1.04.12l-.03.03s-.04.02-.12.04c-.08.02-.1.06-.06.13l.13.09c.06.02.13.04.22.04h.09s1.62-.02,1.62-.02h.09c.17,0,.23-.04.18-.13-.04-.06-.12-.11-.22-.13l-.13-.03c-.08-.02-.15-.06-.21-.15l-1.56-2.28c-.05-.09-.05-.13,0-.15l.1-.03c.08-.03.09-.06.05-.13-.06-.08-.18-.12-.35-.12m2.53,0h-1.73s-.09,0-.09,0c-.17,0-.23.04-.18.13.04.06.12.11.21.13l.13.03c.08.02.15.06.21.15l.68.99h-.58s.15.23.15.23h.58s.72,1.05.72,1.05c.05.09.06.14,0,.15l-.1.03c-.08.03-.1.06-.05.13.05.08.17.13.33.13h1.71s.1,0,.1,0c.18,0,.24-.04.19-.13-.04-.06-.12-.11-.23-.13l-.13-.03c-.08-.02-.15-.07-.21-.15l-1.56-2.28c-.04-.05-.05-.1-.04-.12l.03-.03s.04-.02.12-.04c.09-.02.1-.06.06-.13-.04-.09-.15-.13-.31-.13"/>
        <path class="cls-1" d="m23.6,104.4h-1.7s-.1,0-.1,0c-.09,0-.14.02-.17.04v.09c.04.06.11.11.21.13.09.02.14.03.16.04l.06.03s.08.06.12.12l1.56,2.28c.04.05.04.09.04.12l-.03.03s-.04.02-.12.04c-.09.03-.11.06-.06.13l.13.09c.06.03.13.04.22.04h1.7s.1,0,.1,0c.09,0,.14,0,.18-.04v-.09c-.04-.06-.12-.11-.22-.13-.09-.02-.14-.03-.16-.04l-.06-.03s-.09-.06-.13-.12l-1.56-2.28c-.04-.05-.05-.1-.04-.12l.03-.03s.04-.02.13-.04c.08-.03.1-.06.06-.13l-.13-.09c-.05-.03-.13-.04-.22-.04"/>
        <path class="cls-1" d="m29.55,106.52l-.11.03s-.03.05,0,.1c0,.1,0,.18,0,.24-.02.06-.06.13-.13.18-.06.06-.14.1-.22.13-.08.04-.2.05-.34.07l.17.25h1.51s-.55-.82-.55-.82c-.04-.06-.08-.11-.13-.13l-.18-.04m-1.52-1.23l-.11.04s-.02.06,0,.13c.03.08.02.15,0,.21-.04.05-.11.1-.22.14l.18.26c.13.02.26.05.37.12.12.05.22.13.34.24.05.05.11.09.15.11l.15.04.12-.04s-.02-.08-.06-.15l-.6-.87c-.04-.07-.08-.12-.12-.13-.04-.05-.11-.07-.19-.07m-1.59-.9h-1.62s-.09,0-.09,0c-.09,0-.14.02-.18.04v.09c.04.06.12.11.22.13.09.02.14.03.16.04l.05.03c.05.03.09.06.13.12l1.56,2.28c.04.05.05.1.04.12l-.03.03s-.05.02-.13.04c-.08.03-.1.06-.06.13l.13.09c.06.03.13.04.22.04h1.71s-2.12-3.15-2.12-3.15m1.78,0h-1.45s.18.28.18.28c.29.02.56.07.8.16.24.1.47.23.68.4l.13.08.13.03.12-.04s0-.06-.03-.11l-.56-.81"/>
        <path class="cls-1" d="m30.57,104.37h-1.61c-.12,0-.2.02-.23.04-.04.03-.05.06-.02.11l.08.07s.11.04.19.05l.11.04.11.09,3.16,2.71h.95s-.2-.81-.2-.81l-2.11-1.85-.05-.06-.04-.09.09-.06c.07-.03.08-.07.04-.13l-.07-.06-.1-.04-.11-.02s-.09,0-.19,0m2.06,0h-.88c-.09,0-.16.03-.2.04l-.02.1c.04.05.12.1.22.12l.14.03c.09.02.18.05.25.11l.11.12s.02.05.04.12l.24.96.48.43-.32-1.34c-.03-.09-.03-.17,0-.23.03-.07.07-.12.13-.13l.14-.06.07-.04-.03-.07-.15-.1c-.05-.03-.13-.04-.23-.04"/>
        <path class="cls-1" d="m38.37,106.48l-.1.03s-.03.05-.02.1c0,.1,0,.18,0,.24-.03.06-.06.12-.13.18-.07.06-.14.1-.22.13-.09.03-.21.05-.35.07l.17.24h1.5s-.55-.82-.55-.82c-.04-.06-.08-.11-.13-.13l-.17-.04m-1.52-1.24l-.12.04s-.02.06,0,.13c.03.08.02.15,0,.2-.03.05-.11.1-.21.14l.18.27c.13.02.26.05.38.12.11.05.22.13.34.24.04.05.1.09.14.11l.16.04.11-.04s-.02-.08-.06-.14l-.59-.87c-.04-.07-.09-.12-.12-.13-.05-.06-.13-.08-.2-.08m-1.59-.9h-1.61s-.09,0-.09,0c-.09,0-.15,0-.18.04v.09c.03.06.11.11.21.13.1.02.14.03.16.04l.06.03s.09.06.13.12l1.56,2.28c.04.05.05.1.04.12l-.03.03s-.04.02-.12.04c-.09.03-.1.06-.06.13l.13.09s.12.03.19.03h1.73s-2.13-3.14-2.13-3.14m1.78,0h-1.46s.18.28.18.28c.29.02.56.07.8.16.24.1.46.22.68.4l.13.09.13.02.12-.04s0-.05-.03-.1l-.55-.82"/>
      </g>
    </g>
  </g>
  <g class="cls-4">
    <g class="cls-12">
      <g>
        <path class="cls-1" d="m10.18,62.78l.18.25c.11.02.2.04.26.05l.18.1c.1.07.19.15.27.27l1.28,1.8c.06.08.1.14.12.19v.12l-.05.06s-.1.03-.19.04l.18.25c.23,0,.4-.02.53-.04.13-.03.25-.07.36-.13.25-.13.37-.32.38-.56,0-.24-.1-.51-.32-.82-.19-.28-.44-.52-.74-.75-.29-.22-.63-.4-1.02-.55-.39-.14-.75-.23-1.07-.25-.09-.02-.21-.03-.33-.03m-1.96,0h-.09c-.09,0-.14,0-.18.03v.09c.04.06.12.11.23.13.09.02.14.03.16.04l.05.03c.05.03.09.06.13.12l1.63,2.28c.04.05.04.09.04.12l-.02.03s-.05.02-.13.04c-.08.02-.1.06-.05.13l.13.09c.06.02.13.04.22.04h1.72s-2.22-3.11-2.22-3.11l-1.63-.03"/>
        <path class="cls-1" d="m14.97,62.81l.19.26c.18.03.3.06.4.12.1.04.17.12.24.22l.43.6c.04.07.08.12.08.15l-.03.1s-.12.05-.24.06l.17.24c.14.02.27.04.38.1.08.04.16.1.21.16,0,.02.05.06.11.15l.27.39c.15.21.35.37.62.47.26.12.55.18.88.18.16,0,.29,0,.38-.04.1-.03.18-.06.24-.11.07-.05.13-.11.14-.18.03-.07.03-.13-.02-.18l-.12-.08-.15-.04c-.06,0-.11.03-.13.08l-.03.04h-.04c-.05,0-.1-.02-.13-.06l-.34-.47c-.04-.07-.13-.14-.22-.21-.1-.07-.22-.13-.36-.17-.13-.04-.26-.08-.4-.11-.13-.03-.32-.05-.55-.07.21-.04.36-.09.46-.13.09-.04.17-.08.21-.14.12-.13.1-.31-.05-.52-.19-.26-.49-.47-.91-.61-.29-.1-.59-.16-.88-.18-.2-.02-.43-.03-.7-.03h-.11m-1.9,0h-.09c-.09,0-.14,0-.18.03v.09c.04.06.12.11.22.13.09.02.14.03.16.04l.06.03c.05.03.09.06.13.12l1.63,2.28c.04.05.05.1.04.12l-.02.03s-.05.02-.13.04c-.08.02-.11.06-.05.13l.13.09c.06.03.13.04.22.04h.11s1.62.02,1.62.02h.13c.11,0,.18,0,.21-.03l.03-.1c-.05-.07-.13-.11-.27-.13-.12-.02-.17-.03-.2-.04l-.07-.03c-.05-.03-.1-.07-.14-.13l-1.91-2.68-1.62-.04"/>
        <path class="cls-1" d="m23.08,65l-.1.03s-.03.05,0,.1c.02.1,0,.18,0,.23-.02.06-.06.12-.13.18-.06.05-.13.1-.22.13-.08.03-.2.05-.35.06l.18.25h1.51s-.57-.8-.57-.8c-.05-.06-.1-.11-.13-.13l-.17-.04m-1.56-1.24l-.12.04s0,.06,0,.13c.04.08.03.15,0,.2s-.11.1-.21.13l.2.27c.13.02.25.06.37.12.12.06.24.14.35.24.05.05.11.09.16.11l.15.04.11-.04s-.02-.08-.06-.14l-.62-.87c-.05-.07-.09-.12-.12-.13-.07-.05-.13-.07-.21-.07m-1.3-.91l.19.27c.29.02.56.08.81.17.24.1.47.23.69.4l.13.09.13.02.12-.03s0-.06-.04-.11l-.57-.81h-1.46m-1.95-.02h-.09c-.09,0-.15,0-.18.03v.09c.04.06.12.11.22.13.09.02.14.03.16.04l.06.03s.09.06.13.12l1.62,2.28c.04.05.05.09.04.12l-.03.03s-.04.02-.12.04c-.09.02-.11.06-.06.13l.14.09c.05.02.13.03.22.04h1.71s-2.22-3.11-2.22-3.11l-1.61-.03"/>
        <path class="cls-1" d="m23.91,63.45l.52,1.87c.03.1.03.19,0,.24l-.07.09s-.09.05-.17.08-.11.06-.08.11l.14.1c.07.03.14.04.24.04h.92c.18,0,.24-.03.19-.11-.04-.05-.11-.1-.21-.12l-.14-.04c-.18-.04-.29-.12-.36-.21l-.05-.12-.4-1.47-.54-.47m-.15-.57l.06.22,1.99,1.85h-.82s.1.26.1.26h1.02s.35.34.35.34l.06.07.03.07-.06.05-.09.05.02.07.13.09c.06.03.13.04.2.04l1.82.02c.19,0,.26-.04.2-.12l-.08-.07-.17-.05c-.08-.02-.15-.04-.19-.07-.05-.04-.11-.08-.16-.13l-2.91-2.69-1.49-.02"/>
        <path class="cls-1" d="m28.16,63.94l.98,1.38c.16.22.13.38-.07.47l-.06.04.02.05c.06.08.18.12.36.12h.91s.02,0,.03,0c.16,0,.21-.04.16-.12-.03-.04-.11-.08-.22-.12l-.17-.05c-.11-.04-.21-.09-.32-.15l-.13-.1s-.07-.08-.13-.15l-.49-.68-.87-.7m2.01-1.02l1.9,2.68c.04.06.05.11.04.13l-.04.03s-.06,0-.15.03c-.11.02-.13.06-.08.13l.15.1c.06.03.16.04.27.04h1.73s.11.02.11.02c.18,0,.24-.04.19-.12-.04-.06-.12-.11-.23-.13-.09-.02-.14-.03-.16-.04l-.06-.03s-.09-.06-.13-.12l-1.62-2.28c-.04-.05-.05-.1-.04-.12l.03-.03s.04-.02.12-.03c.08-.03.1-.06.06-.13-.06-.08-.18-.13-.36-.13h-.1l-1.63-.02m-3.05-.03c-.09,0-.14.02-.17.04v.1c.04.07.16.12.34.14.08.02.14.03.2.04.07.04.17.09.28.18l3.28,2.63h.19s-.41-1.76-.41-1.76l-.55-.76.18.69-1.63-1.28-1.71-.03"/>
      </g>
    </g>
  </g>
  <text class="cls-5" transform="translate(50 118.5) scale(1.13 1)"><tspan x="0" y="0">TALENT SOLUTION</tspan></text>
  <path class="cls-10" d="m127.67,20.88c-.21,1.96-.71,3.84-1.47,5.59-.04.02-.07.05-.11.08l-2.91,2.33c-.08.06-.17.08-.22.08-.07,0-.19-.02-.29-.13l-10.73-13.31c-.74-.92-1.85-1.46-3.04-1.46-1.38,0-2.62.7-3.33,1.87l-2.11,3.49s-.05.07-.09.11l-7.34,6.44c-.19.17-.33.33-.44.46l-.04.05-2.32,3.04c-2.04-3.03-3.23-6.67-3.23-10.59,0-.44.02-.88.04-1.31h13.2l-3.87-1.11s.8-1.23-.64-1.75c-1.44-.52-4.45,1.57-4.45,1.57,0,0,.86-2.27-1.07-2.2-.94.04-2.03.75-2.91,1.48,1.56-8.87,9.29-15.61,18.59-15.61,5.45,0,10.37,2.32,13.82,6.02-1.59.37-3.16,1.23-3.28,1.29.09-.12,1.23-1.66-.38-2.27-1.58-.59-6.16,2.46-6.67,2.81.29-.22,1.94-1.53-.13-1.72-2.27-.21-7.78,3.52-7.78,3.52h20.9c1.24,2.2,2.05,4.68,2.31,7.31-1.65.5-3.62,2.02-3.77,2.14.06-.11.8-1.38-.55-1.25-1.4.13-4.87,2.52-4.87,2.52l-1.77.51h10.95Z"/>
  <path class="cls-11" d="m170.3,58.61l-18.73-15.02c-.23-.19-.52-.32-.81-.4l-7.48-1.9c-.39-.1-.73-.3-1.01-.58l-12.2-12.6c-.77-.78-2-.87-2.87-.18l-2.91,2.33c-.91.73-2.25.58-2.99-.33l-10.73-13.31c-.92-1.16-2.71-1.03-3.49.22l-2.12,3.5c-.12.19-.26.36-.43.5l-7.33,6.43c-.11.1-.21.21-.29.3l-6.48,8.49c-.92,1.21-2.8,1.08-3.56-.25l-1.96-3.49c-.68-1.17-2.25-1.45-3.27-.56l-2.95,2.6c-.39.33-.88.52-1.41.52h-1.35c-.72,0-1.39.37-1.8.99l-4.08,6.35c-.34.54-.91.89-1.54.96l-4,.5c-.44.04-.85.24-1.17.54l-15.99,14.46c-1.45,1.32-.52,3.73,1.43,3.73h120.16c2.05,0,2.94-2.54,1.36-3.81Zm-102.15-13.74l-6.37,7.3s-.04.04-.07.06c0,0-11.91,7.41-12.9,7.49-1.39.12,12-8.76,12-8.76.03,0,.04-.04.06-.06l4.34-6.11c.04-.06.11-.1.18-.1l2.56-.23c.23-.03.37.23.21.41Zm18.48-4.02l-9.1,12.31.76-3.37c.1-.4-.3-.74-.7-.59l-8.46,3.48c-.55.22-.97-.48-.52-.87l9.32-7.68c.06-.04.11-.11.13-.18l4.41-9.32c.18-.37.7-.39.91-.04l3.28,5.7c.09.17.07.39-.04.56Zm15.47,9.92s-.1.08-.14.13c-.07.07-.14.14-.21.21-.1.1-6.5,6.1-6.59,6.16-.03,0-.07,0-.07-.06.03-.08,4.52-5.81,4.53-5.82.17-.22.41-.37.69-.41.12,0,.87-.13,1.12-.18.22-.04.44-.06.66-.1.03,0,.04-.03.07,0-.02.02-.04.04-.05.05Zm11.55-11.06s-.1.1-.14.13l-.21.22c-.1.08-6.5,6.09-6.6,6.15,0,0-.07,0-.06-.06.03-.08,4.51-5.8,4.53-5.82.17-.22.41-.37.69-.4.12-.03.87-.14,1.12-.18.21-.04.44-.07.65-.11.03,0,.06-.03.07,0,0,.03-.04.04-.04.06Zm.88-1.35l-3.61.54c-.11,0-.21.06-.29.13l-8.17,7.52c-.43.39-1.08-.06-.88-.59l4.31-11.35c.19-.5-.37-.94-.8-.65l-1.31.87c-.48.33-1.08-.26-.74-.74l4.37-6.68c.04-.07.07-.15.08-.23l.87-7.6c.06-.52.73-.66,1.01-.22l4.22,7.01s.04.06.07.08l6.28,6.94c.21.22.18.59-.07.78l-5.07,4.13c-.08.04-.17.07-.27.09Zm36.66,14.04l-16.62-6.78c-.11-.04-.22,0-.29.08l-3.85,5.11c-.04.06-.11.1-.18.1l-12.5.8c-.25,0-.37-.3-.18-.45l4.8-3.83c.07-.06.11-.15.08-.24l-1.03-5.43c-.04-.15-.21-.25-.34-.19l-5.18,2.11c-.25.1-.46-.22-.26-.41l8.3-7.63s.04-.06.06-.08l1.17-2.75s.04-.07.07-.1l3.34-2.78c.11-.08.26-.07.34.04l11.26,13.69.04.04,11.22,8.29c.22.17,0,.54-.26.42Zm2.92-1.02c-.22.14-1.02-.73-1.38-1.06-.46-.4-.92-.81-1.38-1.22-.52-.45-1.03-.9-1.56-1.35-.52-.47-1.05-.92-1.57-1.39-.48-.43-.97-.87-1.47-1.29-.4-.36-.8-.71-1.21-1.07-.29-.25-.55-.48-.83-.73-.11-.08-.21-.18-.3-.27-.21-.18-.04-.51.22-.44l5.54,1.39s.07.03.11.04c.47.38.94.74,1.39,1.12.33.26.66.52.99.78.14.12.29.22.43.34.06.04.14.1.18.15.04.12-.08.19-.18.18-.46-.04-.92-.14-1.39-.22-.26-.04-.52-.1-.78-.13.04.07.1.14.14.21.29.45.55.9.84,1.35.4.63.8,1.25,1.21,1.9.2.29,1.09,1.62.97,1.7Z"/>
  <g>
    <polygon points="4.63 89.02 32.96 89.02 28.39 96.91 .06 96.91 4.63 89.02"/>
    <polygon class="cls-14" points="6.71 89.02 3.46 82.46 31.03 82.46 35.86 89.02 6.71 89.02"/>
    <polygon class="cls-14" points=".06 89.02 .06 85.01 .07 77.58 5.63 89.02 .04 96.91 .06 92.96 .06 89.02"/>
    <polygon class="cls-14" points="6.71 89.02 35.86 89.02 31.03 96.91 1.26 96.91 6.71 89.02"/>
    <polygon class="cls-9" points="35.86 89.02 24.49 91.77 1.26 96.91 6.71 89.02 35.86 89.02"/>
    <g class="cls-4">
      <g class="cls-3">
        <g>
          <path class="cls-1" d="m9,84.06h-1.85c-.12,0-.2.03-.25.04l-.04.1c.04.06.13.1.23.12l.16.05s.1.06.17.13l3.05,2.58h.85s-.25-1.08-.25-1.08l-1.78-1.51-.04-.05-.03-.08s.04-.04.11-.06c.07-.04.09-.07.06-.12l-.14-.09c-.05-.02-.13-.03-.25-.03m1.93,0h-.81s.26,1.08.26,1.08l2.24,1.93h.87s-.23-1.01-.23-1.01l-2.32-2m1.98,0h-.95c-.09,0-.16.02-.2.04v.08s.08.07.08.07l.17.05c.12.03.21.05.27.09l.14.12s.03.07.04.13l.16.65.5.44-.23-1.06c-.03-.13,0-.22.07-.3.04-.04.1-.06.21-.1l.08-.04v-.06l-.13-.09s-.12-.02-.22-.02"/>
          <path class="cls-1" d="m15.67,83.97c-.28,0-.52.04-.72.1-.19.06-.36.14-.48.25-.17.14-.25.32-.24.53,0,.21.09.44.28.7.35.51.88.9,1.58,1.18.54.22,1.12.34,1.73.37l-.17-.24c-.14-.02-.26-.05-.34-.1-.1-.05-.19-.14-.29-.27l-1.34-1.97c-.06-.09-.08-.15-.05-.2s.09-.09.21-.12l-.16-.23m.32,0l.17.24c.09.02.16.04.22.05l.16.07c.08.04.14.11.2.19l1.35,1.97c.08.13.11.22.07.27l-.05.06-.13.04.16.24c.57-.03.98-.15,1.22-.38.32-.29.3-.68-.04-1.19-.36-.52-.9-.93-1.64-1.22-.28-.11-.55-.19-.82-.25-.29-.05-.56-.09-.86-.1"/>
          <path class="cls-1" d="m20.93,84.01h-1.76s-.1,0-.1,0c-.1,0-.17,0-.2.04l-.03.08c.04.06.13.11.25.13.1.02.15.03.17.03l.06.03c.05.03.09.06.13.12l1.51,2.2c.04.05.04.09.04.12l-.03.03s-.05.02-.13.04c-.09.02-.12.06-.08.12l.13.09c.07.02.14.03.24.03h1.87s.13-.02.13-.02c.12,0,.2,0,.22-.03l.04-.09c-.04-.07-.13-.11-.28-.13-.11-.02-.18-.03-.21-.03l-.07-.03c-.05-.03-.1-.06-.14-.13l-1.78-2.6m.41,0h-.11l.17.24c.18.03.33.06.42.11s.18.12.23.21l.4.58c.04.06.07.12.07.15l-.04.09s-.13.05-.26.06l.16.23c.15,0,.28.04.39.09.1.04.16.1.21.15,0,.02.04.06.1.14l.25.37c.14.2.34.35.62.47.28.11.58.16.93.16.17,0,.31-.02.43-.04.11-.03.21-.06.28-.11.08-.05.13-.12.17-.18.04-.07.04-.13,0-.17l-.13-.08-.16-.04c-.06,0-.12.03-.15.08l-.04.04h-.05c-.05,0-.1-.02-.13-.06l-.31-.46c-.04-.07-.13-.14-.23-.21-.1-.06-.22-.12-.37-.16-.13-.04-.28-.08-.42-.11-.15-.03-.35-.04-.61-.06.23-.04.41-.09.51-.13.11-.04.19-.08.25-.14.14-.13.14-.3,0-.51-.17-.25-.48-.45-.91-.58-.3-.1-.62-.15-.93-.16-.2.02-.45.02-.74.02"/>
          <path class="cls-1" d="m26.76,83.98h-1.86s-.11,0-.11,0c-.09,0-.16,0-.2.03l-.02.09c.04.06.13.1.23.12s.16.03.18.04l.06.03c.05.03.09.06.13.12l1.51,2.2c.04.05.04.09.04.12l-.04.03s-.05.02-.13.03c-.09.03-.12.06-.07.13l.13.09c.06.02.14.03.24.03h1.86s.1,0,.1,0c.19,0,.25-.04.21-.12-.04-.06-.12-.11-.23-.13l-.13-.02c-.09-.02-.16-.06-.22-.15l-1.51-2.2c-.04-.05-.04-.09-.03-.12l.03-.03s.05-.02.13-.04c.1-.02.12-.06.08-.12l-.13-.09c-.05-.02-.13-.03-.23-.03m2.57,0h-1.45c-.08,0-.13.02-.16.04v.1c.03.05.09.08.2.11l.16.04.21.07.13.12c.04.07.05.14.02.22l-.44.74c-.04.06-.04.12,0,.17.04.05.11.13.21.2l1.08.84.08.07v.04s-.11.04-.11.04c-.08.03-.11.06-.08.11l.14.1c.07.03.15.04.25.04h1.98c.2-.02.27-.05.21-.13l-.12-.08-.13-.04-.17-.05s-.11-.06-.17-.11l-2.39-1.73.13-.22c.07-.12.14-.19.21-.24.09-.06.18-.1.25-.12l.18-.05c.11-.03.13-.07.09-.13l-.14-.1c-.05-.03-.13-.04-.2-.04"/>
        </g>
      </g>
    </g>
  </g>
  <text class="cls-7" transform="translate(176.82 118.43) scale(.72 1)"><tspan x="0" y="0">T</tspan></text>
  <polygon class="cls-9" points="45.88 109.73 29.55 113.16 1.18 118.67 6.54 109.73 45.88 109.73"/>
  <text class="cls-6" transform="translate(0 129.55) scale(1.02 1)"><tspan x="0" y="0">where talent meets opportunity</tspan></text>
</svg>